# xmcd
#
# Track frame offsets:
#	150
#	19358
#	35538
#	54428
#	69818
#	87733
#	104733
#	122503
#	138680
#	154513
#	171705
#	187945
#	205280
#	227547
#	244482
#
# Disc length: 3494 seconds
#
# Revision: 1
# Processed by: cddbd v1.5.2PL0 Copyright (c) Steve Scherf et al.
# Submitted via: audiograbber 1.83.01
#
DISCID=d80da40f
DTITLE=Various Artist - Sing Best Country 2000 v.3
DYEAR=2000
DGENRE=Country
TTITLE0=Billy Gilman - One Voice
TTITLE1=Toby Keith - How Do You Like Me Now
TTITLE2=Tim McGraw - Some Things Never Change
TTITLE3=Alan Jackson - It Must Be Love
TTITLE4=Steve Holy - Blue Moon
TTITLE5=Toby Keith - Country Comes To Town
TTITLE6=Tim McGraw and Faith Hill - Its Your Love
TTITLE7=Jo Dee Messina - Thats The Way
TTITLE8=SheDaisy - Little Goodbyes
TTITLE9=Shania Twain - I'm Holdin' On To Love
TTITLE10=Martina McBride - There You Are
TTITLE11=Dixie Chicks - Wide Open Spaces
TTITLE12=Anita Cochran - What If I Said
TTITLE13=Shania Twain - Love Gets Me Every Time
TTITLE14=Shania Twain - Don't Be Stupid
EXTD=The Entertainer Series #9026
EXTT0=
EXTT1=
EXTT2=
EXTT3=
EXTT4=
EXTT5=
EXTT6=
EXTT7=
EXTT8=
EXTT9=
EXTT10=
EXTT11=
EXTT12=
EXTT13=
EXTT14=
PLAYORDER=
